<svg xmlns="http://www.w3.org/2000/svg" width="422.4" height="144.4" viewBox="0 0 422.4 144.4">
  <path id="cdev" d="M-158.1-106.2a59.26,59.26,0,0,1,14,1.6,36.418,36.418,0,0,1,11,4.4,23.543,23.543,0,0,1,8.1,8.1,20.63,20.63,0,0,1,2.9,10.7,15.764,15.764,0,0,1-4.4,11.5,15.24,15.24,0,0,1-11.4,4.5q-7,0-11.2-4t-4.2-10.8a15.4,15.4,0,0,1,3.8-10.4,19.1,19.1,0,0,1,9.4-6,10.7,10.7,0,0,0-4.9-3.5,19.2,19.2,0,0,0-7.1-1.3q-12,0-18.7,13.1T-177.5-54q0,21.4,7.6,30.8t19,9.4a29.422,29.422,0,0,0,13.7-3.6q6.9-3.6,12.5-12.6l3.4,1.2a50.058,50.058,0,0,1-14,22.3q-10,9.3-25.8,9.3-20.6,0-33.6-13.6t-13-40.4q0-17.6,6.4-30a43.894,43.894,0,0,1,17.6-18.7A51.312,51.312,0,0,1-158.1-106.2Zm102-35.4q39,0,58.4,17.7T21.7-72.4q0,21.8-9.5,38.1A64.234,64.234,0,0,1-15.2-9Q-33.1,0-57.9,0L-70.3-.2Q-81.9-.6-87.1-.6q-20.6,0-30.8.6V-4a34.724,34.724,0,0,0,9.7-1.6,6.92,6.92,0,0,0,4.2-4.6q1.1-3.4,1.1-11v-99.2q0-7.6-1.1-11a6.92,6.92,0,0,0-4.2-4.6,34.725,34.725,0,0,0-9.7-1.6v-4q8.4.6,24.2.6h6.2l8-.2Q-63.1-141.6-56.1-141.6Zm-.2,3.6q-6.2,0-9.3,1.4a7.915,7.915,0,0,0-4.3,5q-1.2,3.6-1.2,10.8v100q0,7.2,1.2,10.8a7.915,7.915,0,0,0,4.3,5q3.1,1.4,9.5,1.4,24.2,0,34.4-16.9t10.2-51.1q0-34.2-10.5-50.3T-56.3-138ZM86.1-13.6q16.4,0,26.4-16l3.6,1.2A47.693,47.693,0,0,1,101.8-6.3Q91.5,2.8,76.1,2.8q-21.2,0-33.7-13.5T29.9-50.6q0-27,13.4-41.3t35.6-14.3q37.6,0,37.6,44.4H60.3q-.2,3-.2,9.4,0,13.2,3.7,22t9.6,12.8A22.2,22.2,0,0,0,86.1-13.6ZM77.7-102q-7.2,0-11.9,8.9T59.9-65.6H91.3q.4-15.8-3.1-26.1T77.7-102Zm121.6-.8a145.746,145.746,0,0,0,15.4-.6v4a15.334,15.334,0,0,0-7.5,5.1q-3.3,3.9-6.3,12.1L171.7.4q-2.2-.2-6.6-.2-4.2,0-6.4.2L123.1-88q-2.8-6.8-5.7-9a9.694,9.694,0,0,0-5.9-2.2v-4.2q14,1,28.4,1,12.6,0,26-1v4.2q-6.8,0-9.7.9t-2.9,4.9a20.033,20.033,0,0,0,1,5l22.8,60.6,14.4-39.6q3.2-9.4,3.2-16.2,0-14.6-14.6-15.8v-4Q189.3-102.8,199.3-102.8Z" transform="translate(207.7 141.6)" fill="#ffbc29" opacity="0.5"/>
</svg>
