<svg xmlns="http://www.w3.org/2000/svg" width="81.385" height="47.556" viewBox="0 0 81.385 47.556"><defs><style>.a{fill:#ffa638;}</style></defs><g transform="translate(-271.09 -935.597)"><path class="a" d="M413.3,960.654l38.622,22.3a1.477,1.477,0,0,0,2.216-1.279v-44.6a1.477,1.477,0,0,0-2.216-1.28L413.3,958.1A1.477,1.477,0,0,0,413.3,960.654Z" transform="translate(-113.447)"/><path d="M271.09,1014.18a9.76,9.76,0,0,1,3.032-7.238,10.156,10.156,0,0,1,7.39-2.975,9.8,9.8,0,0,1,8.83,4.775l-4.112,2.293a5.639,5.639,0,0,0-8.764-.853,5.518,5.518,0,0,0,0,8,5.549,5.549,0,0,0,4.046,1.705,5.424,5.424,0,0,0,4.718-2.52l4.074,2.255a9.827,9.827,0,0,1-8.792,4.813,10.116,10.116,0,0,1-7.362-3.013A9.794,9.794,0,0,1,271.09,1014.18Z" transform="translate(0 -54.825)"/><path d="M368.453,987.8a9.76,9.76,0,0,1,3.032-7.238,10.132,10.132,0,0,1,7.371-2.975,9.7,9.7,0,0,1,5.742,1.781v-8.3h4.851v26.547H384.6v-1.326a10.373,10.373,0,0,1-13.094-1.25A9.809,9.809,0,0,1,368.453,987.8Zm6.367-4a5.629,5.629,0,1,0,4.036-1.705A5.475,5.475,0,0,0,374.82,983.8Z" transform="translate(-78.073 -28.442)"/><path d="M484.276,1014.18a9.774,9.774,0,0,1,3.022-7.238,10.124,10.124,0,0,1,7.381-2.975,9.833,9.833,0,0,1,7.485,3.07,10.449,10.449,0,0,1,2.9,7.447q0,.474-.076,1.326H489.241a5.757,5.757,0,0,0,2.113,3,6.176,6.176,0,0,0,3.7,1.071,6.808,6.808,0,0,0,3.041-.607,6.144,6.144,0,0,0,2.189-1.914l4.093,2.255a10.472,10.472,0,0,1-9.323,4.813,10.742,10.742,0,0,1-7.722-2.918A9.706,9.706,0,0,1,484.276,1014.18Zm5.078-2.217h10.555a5.266,5.266,0,0,0-5.23-3.486,5.59,5.59,0,0,0-3.183.966A5.912,5.912,0,0,0,489.354,1011.963Z" transform="translate(-170.949 -54.825)"/><path d="M586.422,1004.924H591.5l4.386,13.862,4.481-13.862h4.965l-6.414,19.839h-6.1Z" transform="translate(-252.858 -55.592)"/></g></svg>