<svg xmlns="http://www.w3.org/2000/svg" xmlns:xlink="http://www.w3.org/1999/xlink" width="110.952" height="122.122" viewBox="0 0 110.952 122.122">
  <defs>
    <filter id="Oval_Copy_2" x="52.836" y="43.137" width="37.53" height="37.53" filterUnits="userSpaceOnUse">
      <feOffset input="SourceAlpha"/>
      <feGaussianBlur stdDeviation="2" result="blur"/>
      <feFlood flood-color="#fff" flood-opacity="0.502"/>
      <feComposite operator="in" in2="blur"/>
      <feComposite in="SourceGraphic"/>
    </filter>
    <filter id="Oval_Copy_2-2" x="9.836" y="43.137" width="37.53" height="37.53" filterUnits="userSpaceOnUse">
      <feOffset input="SourceAlpha"/>
      <feGaussianBlur stdDeviation="2" result="blur-2"/>
      <feFlood flood-color="#fff" flood-opacity="0.502"/>
      <feComposite operator="in" in2="blur-2"/>
      <feComposite in="SourceGraphic"/>
    </filter>
  </defs>
  <g id="path" transform="translate(1.5)">
    <path id="Path_4_Copy" data-name="Path 4 Copy" d="M0,2H107.952" transform="translate(0 59.442)" fill="none" stroke="#ffbc29" stroke-linecap="round" stroke-miterlimit="10" stroke-width="3"/>
    <path id="Path_4_Copy-2" data-name="Path 4 Copy" d="M0,0H33.783" transform="translate(26.976 15.228) rotate(90)" fill="none" stroke="#ffbc29" stroke-linecap="round" stroke-miterlimit="10" stroke-width="3"/>
    <path id="Path_4_Copy-3" data-name="Path 4 Copy" d="M0,0H33.783" transform="translate(69.976 74.228) rotate(90)" fill="none" stroke="#ffbc29" stroke-linecap="round" stroke-miterlimit="10" stroke-width="3"/>
    <g id="_2" data-name="2" transform="translate(81.367 73.167) rotate(180)">
      <g transform="matrix(-1, 0, 0, -1, 82.87, 73.17)" filter="url(#Oval_Copy_2)">
        <circle id="Oval_Copy_2-3" data-name="Oval Copy 2" cx="11.265" cy="11.265" r="11.265" transform="translate(82.87 73.17) rotate(180)" fill="none" stroke="#ffbc29" stroke-miterlimit="10" stroke-width="3"/>
      </g>
      <g transform="matrix(-1, 0, 0, -1, 82.87, 73.17)" filter="url(#Oval_Copy_2-2)">
        <circle id="Oval_Copy_2-4" data-name="Oval Copy 2" cx="11.265" cy="11.265" r="11.265" transform="translate(39.87 73.17) rotate(180)" fill="none" stroke="#ffbc29" stroke-miterlimit="10" stroke-width="3"/>
      </g>
      <circle id="Oval_Copy_5" data-name="Oval Copy 5" cx="8.046" cy="8.046" r="8.046" transform="translate(3.219 3.219)" fill="#ffbc29" stroke="#ffbc29" stroke-miterlimit="10" stroke-width="1"/>
      <circle id="Oval_Copy_5-2" data-name="Oval Copy 5" cx="8.046" cy="8.046" r="8.046" transform="translate(46.219 3.219)" fill="#ffbc29" stroke="#ffbc29" stroke-miterlimit="10" stroke-width="1"/>
    </g>
    <path id="Path_20854" data-name="Path 20854" d="M6.944-7.154a2.568,2.568,0,0,1-.21,1.022,4.719,4.719,0,0,1-.546.945,7.744,7.744,0,0,1-.756.875q-.42.42-.826.8-.21.2-.455.441t-.469.5q-.224.252-.4.469a1.164,1.164,0,0,0-.217.357H7.238V0H.77A2.257,2.257,0,0,1,.742-.392q0-.238,0-.336A3.383,3.383,0,0,1,.959-1.96,4.606,4.606,0,0,1,1.526-3a6.566,6.566,0,0,1,.791-.9q.441-.42.875-.84.336-.322.63-.609a6.943,6.943,0,0,0,.518-.56,2.555,2.555,0,0,0,.35-.546,1.308,1.308,0,0,0,.126-.553,1,1,0,0,0-.35-.868A1.447,1.447,0,0,0,3.6-8.134a2.063,2.063,0,0,0-.707.119,3.578,3.578,0,0,0-.6.28,3.707,3.707,0,0,0-.469.322q-.2.161-.294.259L.49-8.61a5.283,5.283,0,0,1,1.435-.945,4.208,4.208,0,0,1,1.757-.371,4.876,4.876,0,0,1,1.47.2,2.749,2.749,0,0,1,1.015.553,2.144,2.144,0,0,1,.588.868A3.313,3.313,0,0,1,6.944-7.154Zm8.484,2.282A6.434,6.434,0,0,1,14.5-1.113,2.981,2.981,0,0,1,11.928.2,2.981,2.981,0,0,1,9.359-1.113a6.434,6.434,0,0,1-.931-3.759,8.565,8.565,0,0,1,.245-2.156A4.747,4.747,0,0,1,9.38-8.61a3.151,3.151,0,0,1,1.106-.98,3.07,3.07,0,0,1,1.442-.336A2.981,2.981,0,0,1,14.5-8.617,6.405,6.405,0,0,1,15.428-4.872Zm-2.128,0A11.391,11.391,0,0,0,13.23-6.2a4.761,4.761,0,0,0-.224-1.029,1.6,1.6,0,0,0-.42-.672.951.951,0,0,0-.658-.238.925.925,0,0,0-.651.238,1.694,1.694,0,0,0-.42.672A4.479,4.479,0,0,0,10.626-6.2a11.391,11.391,0,0,0-.07,1.323,11.575,11.575,0,0,0,.07,1.33,4.488,4.488,0,0,0,.231,1.036,1.694,1.694,0,0,0,.42.672.925.925,0,0,0,.651.238.951.951,0,0,0,.658-.238,1.6,1.6,0,0,0,.42-.672,4.768,4.768,0,0,0,.224-1.036A11.575,11.575,0,0,0,13.3-4.872Zm3.584-2.814q.406-.168.847-.385t.861-.476q.42-.259.8-.546A5.526,5.526,0,0,0,20.09-9.7h1.456V0H19.46V-6.986a6.351,6.351,0,0,1-.938.511q-.518.231-1.008.4ZM28.9-2.856a1.415,1.415,0,0,0-.182-.721,1.362,1.362,0,0,0-.63-.525,4.426,4.426,0,0,0-1.2-.322,13.371,13.371,0,0,0-1.9-.112q.154-1.3.252-2.646t.154-2.52h5.25v1.75h-3.5q-.028.5-.063.973t-.077.819a5.2,5.2,0,0,1,3.017.959,2.812,2.812,0,0,1,.973,2.275,3.221,3.221,0,0,1-.238,1.246,2.68,2.68,0,0,1-.714.994,3.389,3.389,0,0,1-1.2.658A5.391,5.391,0,0,1,27.146.21a6.721,6.721,0,0,1-.791-.049q-.413-.049-.8-.126t-.693-.161a2.694,2.694,0,0,1-.476-.168l.378-1.722a6.147,6.147,0,0,0,.924.3,5.589,5.589,0,0,0,1.372.147,2.083,2.083,0,0,0,1.4-.385A1.173,1.173,0,0,0,28.9-2.856Z" transform="translate(10.34 9.926)" fill="#ffbc29"/>
    <path id="Path_20853" data-name="Path 20853" d="M6.944-7.154a2.568,2.568,0,0,1-.21,1.022,4.719,4.719,0,0,1-.546.945,7.744,7.744,0,0,1-.756.875q-.42.42-.826.8-.21.2-.455.441t-.469.5q-.224.252-.4.469a1.164,1.164,0,0,0-.217.357H7.238V0H.77A2.257,2.257,0,0,1,.742-.392q0-.238,0-.336A3.383,3.383,0,0,1,.959-1.96,4.606,4.606,0,0,1,1.526-3a6.566,6.566,0,0,1,.791-.9q.441-.42.875-.84.336-.322.63-.609a6.943,6.943,0,0,0,.518-.56,2.555,2.555,0,0,0,.35-.546,1.308,1.308,0,0,0,.126-.553,1,1,0,0,0-.35-.868A1.447,1.447,0,0,0,3.6-8.134a2.063,2.063,0,0,0-.707.119,3.578,3.578,0,0,0-.6.28,3.707,3.707,0,0,0-.469.322q-.2.161-.294.259L.49-8.61a5.283,5.283,0,0,1,1.435-.945,4.208,4.208,0,0,1,1.757-.371,4.876,4.876,0,0,1,1.47.2,2.749,2.749,0,0,1,1.015.553,2.144,2.144,0,0,1,.588.868A3.313,3.313,0,0,1,6.944-7.154Zm8.484,2.282A6.434,6.434,0,0,1,14.5-1.113,2.981,2.981,0,0,1,11.928.2,2.981,2.981,0,0,1,9.359-1.113a6.434,6.434,0,0,1-.931-3.759,8.565,8.565,0,0,1,.245-2.156A4.747,4.747,0,0,1,9.38-8.61a3.151,3.151,0,0,1,1.106-.98,3.07,3.07,0,0,1,1.442-.336A2.981,2.981,0,0,1,14.5-8.617,6.405,6.405,0,0,1,15.428-4.872Zm-2.128,0A11.391,11.391,0,0,0,13.23-6.2a4.761,4.761,0,0,0-.224-1.029,1.6,1.6,0,0,0-.42-.672.951.951,0,0,0-.658-.238.925.925,0,0,0-.651.238,1.694,1.694,0,0,0-.42.672A4.479,4.479,0,0,0,10.626-6.2a11.391,11.391,0,0,0-.07,1.323,11.575,11.575,0,0,0,.07,1.33,4.488,4.488,0,0,0,.231,1.036,1.694,1.694,0,0,0,.42.672.925.925,0,0,0,.651.238.951.951,0,0,0,.658-.238,1.6,1.6,0,0,0,.42-.672,4.768,4.768,0,0,0,.224-1.036A11.575,11.575,0,0,0,13.3-4.872Zm9.548-2.282a2.568,2.568,0,0,1-.21,1.022,4.719,4.719,0,0,1-.546.945,7.744,7.744,0,0,1-.756.875q-.42.42-.826.8-.21.2-.455.441t-.469.5q-.224.252-.4.469a1.164,1.164,0,0,0-.217.357h4.172V0H16.674a2.257,2.257,0,0,1-.028-.392V-.728a3.383,3.383,0,0,1,.217-1.232A4.606,4.606,0,0,1,17.43-3a6.566,6.566,0,0,1,.791-.9q.441-.42.875-.84.336-.322.63-.609a6.942,6.942,0,0,0,.518-.56,2.555,2.555,0,0,0,.35-.546,1.308,1.308,0,0,0,.126-.553,1,1,0,0,0-.35-.868,1.447,1.447,0,0,0-.868-.252,2.063,2.063,0,0,0-.707.119,3.578,3.578,0,0,0-.6.28,3.707,3.707,0,0,0-.469.322q-.2.161-.294.259L16.394-8.61a5.283,5.283,0,0,1,1.435-.945,4.208,4.208,0,0,1,1.757-.371,4.876,4.876,0,0,1,1.47.2,2.749,2.749,0,0,1,1.015.553,2.144,2.144,0,0,1,.588.868A3.313,3.313,0,0,1,22.848-7.154Zm7.952,0a2.568,2.568,0,0,1-.21,1.022,4.719,4.719,0,0,1-.546.945,7.744,7.744,0,0,1-.756.875q-.42.42-.826.8-.21.2-.455.441t-.469.5q-.224.252-.4.469a1.164,1.164,0,0,0-.217.357h4.172V0H24.626A2.257,2.257,0,0,1,24.6-.392V-.728a3.383,3.383,0,0,1,.217-1.232A4.606,4.606,0,0,1,25.382-3a6.566,6.566,0,0,1,.791-.9q.441-.42.875-.84.336-.322.63-.609a6.943,6.943,0,0,0,.518-.56,2.555,2.555,0,0,0,.35-.546,1.308,1.308,0,0,0,.126-.553,1,1,0,0,0-.35-.868,1.447,1.447,0,0,0-.868-.252,2.063,2.063,0,0,0-.707.119,3.578,3.578,0,0,0-.6.28,3.707,3.707,0,0,0-.469.322q-.2.161-.294.259L24.346-8.61a5.283,5.283,0,0,1,1.435-.945,4.208,4.208,0,0,1,1.757-.371,4.876,4.876,0,0,1,1.47.2,2.749,2.749,0,0,1,1.015.553,2.144,2.144,0,0,1,.588.868A3.313,3.313,0,0,1,30.8-7.154Z" transform="translate(54.184 121.926)" fill="#ffbc29"/>
  </g>
</svg>
